<svg width="70" height="70" viewBox="0 0 70 70" fill="none" xmlns="http://www.w3.org/2000/svg">
<path d="M20.24 47.4C18.5067 47.4 16.8667 47.2667 15.32 47C13.7733 46.7067 12.4533 46.3067 11.36 45.8V39.6C12.56 40.16 13.8933 40.6133 15.36 40.96C16.8267 41.3067 18.2 41.48 19.48 41.48C20.8133 41.48 21.8133 41.3733 22.48 41.16C23.1733 40.92 23.52 40.4 23.52 39.6C23.52 39.04 23.32 38.6 22.92 38.28C22.5467 37.96 21.9467 37.6667 21.12 37.4C20.32 37.1333 19.2667 36.8 17.96 36.4C16.2267 35.84 14.8533 35.2267 13.84 34.56C12.8267 33.8933 12.0933 33.08 11.64 32.12C11.2133 31.16 11 29.9867 11 28.6C11 26.0667 11.8933 24.1467 13.68 22.84C15.4933 21.5067 18.1733 20.84 21.72 20.84C23.1333 20.84 24.5867 20.96 26.08 21.2C27.6 21.44 28.8267 21.7067 29.76 22V28.24C28.5067 27.7333 27.3067 27.3733 26.16 27.16C25.0133 26.9467 23.9333 26.84 22.92 26.84C21.7467 26.84 20.7467 26.9333 19.92 27.12C19.0933 27.3067 18.68 27.7867 18.68 28.56C18.68 29.2267 19.0267 29.72 19.72 30.04C20.44 30.3333 21.7067 30.72 23.52 31.2C25.6267 31.76 27.2267 32.44 28.32 33.24C29.44 34.04 30.2 34.9733 30.6 36.04C31 37.08 31.2 38.2667 31.2 39.6C31.2 41.9467 30.2933 43.84 28.48 45.28C26.6667 46.6933 23.92 47.4 20.24 47.4Z" fill="black"/>
<path d="M51.0675 53.88C48.3208 53.88 46.3875 53.32 45.2675 52.2C44.1475 51.1067 43.5742 49.4533 43.5475 47.24C40.1608 46.84 37.5875 45.6 35.8275 43.52C34.0675 41.4133 33.1875 38.3067 33.1875 34.2C33.1875 31 33.6942 28.4267 34.7075 26.48C35.7208 24.5067 37.2008 23.08 39.1475 22.2C41.1208 21.2933 43.5208 20.84 46.3475 20.84C49.1742 20.84 51.5608 21.2933 53.5075 22.2C55.4808 23.08 56.9742 24.5067 57.9875 26.48C59.0008 28.4267 59.5075 31 59.5075 34.2C59.5075 38.2267 58.6408 41.2933 56.9075 43.4C55.1742 45.48 52.6808 46.7467 49.4275 47.2C49.4275 48.0267 49.5875 48.5733 49.9075 48.84C50.2542 49.1067 50.7475 49.24 51.3875 49.24C51.7875 49.24 52.2008 49.2 52.6275 49.12C53.0808 49.04 53.5075 48.9467 53.9075 48.84V53.48C53.5075 53.5867 53.0408 53.68 52.5075 53.76C52.0008 53.84 51.5208 53.88 51.0675 53.88ZM46.3475 41C48.2675 41 49.6542 40.4667 50.5075 39.4C51.3875 38.3067 51.8275 36.5733 51.8275 34.2C51.8275 31.6667 51.3875 29.88 50.5075 28.84C49.6542 27.7733 48.2675 27.24 46.3475 27.24C44.4275 27.24 43.0275 27.7733 42.1475 28.84C41.2942 29.88 40.8675 31.6667 40.8675 34.2C40.8675 36.5733 41.2942 38.3067 42.1475 39.4C43.0275 40.4667 44.4275 41 46.3475 41Z" fill="#0B6ECB"/>
</svg>
